<svg xmlns:xlink="http://www.w3.org/1999/xlink" width="91.912ex" height="10.509ex" style="font-size: 15px; vertical-align: -4.671ex;" viewBox="0 -2513.6 39572.9 4524.8" role="img" focusable="false" xmlns="http://www.w3.org/2000/svg">
<defs>
<path stroke-width="1" id="E1-MJMAIN-28" d="M94 250Q94 319 104 381T127 488T164 576T202 643T244 695T277 729T302 750H315H319Q333 750 333 741Q333 738 316 720T275 667T226 581T184 443T167 250T184 58T225 -81T274 -167T316 -220T333 -241Q333 -250 318 -250H315H302L274 -226Q180 -141 137 -14T94 250Z"></path>
<path stroke-width="1" id="E1-MJMAIN-32" d="M109 429Q82 429 66 447T50 491Q50 562 103 614T235 666Q326 666 387 610T449 465Q449 422 429 383T381 315T301 241Q265 210 201 149L142 93L218 92Q375 92 385 97Q392 99 409 186V189H449V186Q448 183 436 95T421 3V0H50V19V31Q50 38 56 46T86 81Q115 113 136 137Q145 147 170 174T204 211T233 244T261 278T284 308T305 340T320 369T333 401T340 431T343 464Q343 527 309 573T212 619Q179 619 154 602T119 569T109 550Q109 549 114 549Q132 549 151 535T170 489Q170 464 154 447T109 429Z"></path>
<path stroke-width="1" id="E1-MJMAIN-29" d="M60 749L64 750Q69 750 74 750H86L114 726Q208 641 251 514T294 250Q294 182 284 119T261 12T224 -76T186 -143T145 -194T113 -227T90 -246Q87 -249 86 -250H74Q66 -250 63 -250T58 -247T55 -238Q56 -237 66 -225Q221 -64 221 250T66 725Q56 737 55 738Q55 746 60 749Z"></path>
<path stroke-width="1" id="E1-MJMATHI-70" d="M23 287Q24 290 25 295T30 317T40 348T55 381T75 411T101 433T134 442Q209 442 230 378L240 387Q302 442 358 442Q423 442 460 395T497 281Q497 173 421 82T249 -10Q227 -10 210 -4Q199 1 187 11T168 28L161 36Q160 35 139 -51T118 -138Q118 -144 126 -145T163 -148H188Q194 -155 194 -157T191 -175Q188 -187 185 -190T172 -194Q170 -194 161 -194T127 -193T65 -192Q-5 -192 -24 -194H-32Q-39 -187 -39 -183Q-37 -156 -26 -148H-6Q28 -147 33 -136Q36 -130 94 103T155 350Q156 355 156 364Q156 405 131 405Q109 405 94 377T71 316T59 280Q57 278 43 278H29Q23 284 23 287ZM178 102Q200 26 252 26Q282 26 310 49T356 107Q374 141 392 215T411 325V331Q411 405 350 405Q339 405 328 402T306 393T286 380T269 365T254 350T243 336T235 326L232 322Q232 321 229 308T218 264T204 212Q178 106 178 102Z"></path>
<path stroke-width="1" id="E1-MJMATHI-53" d="M308 24Q367 24 416 76T466 197Q466 260 414 284Q308 311 278 321T236 341Q176 383 176 462Q176 523 208 573T273 648Q302 673 343 688T407 704H418H425Q521 704 564 640Q565 640 577 653T603 682T623 704Q624 704 627 704T632 705Q645 705 645 698T617 577T585 459T569 456Q549 456 549 465Q549 471 550 475Q550 478 551 494T553 520Q553 554 544 579T526 616T501 641Q465 662 419 662Q362 662 313 616T263 510Q263 480 278 458T319 427Q323 425 389 408T456 390Q490 379 522 342T554 242Q554 216 546 186Q541 164 528 137T492 78T426 18T332 -20Q320 -22 298 -22Q199 -22 144 33L134 44L106 13Q83 -14 78 -18T65 -22Q52 -22 52 -14Q52 -11 110 221Q112 227 130 227H143Q149 221 149 216Q149 214 148 207T144 186T142 153Q144 114 160 87T203 47T255 29T308 24Z"></path>
<path stroke-width="1" id="E1-MJMAIN-3D" d="M56 347Q56 360 70 367H707Q722 359 722 347Q722 336 708 328L390 327H72Q56 332 56 347ZM56 153Q56 168 72 173H708Q722 163 722 153Q722 140 707 133H70Q56 140 56 153Z"></path>
<path stroke-width="1" id="E1-MJMATHI-77" d="M580 385Q580 406 599 424T641 443Q659 443 674 425T690 368Q690 339 671 253Q656 197 644 161T609 80T554 12T482 -11Q438 -11 404 5T355 48Q354 47 352 44Q311 -11 252 -11Q226 -11 202 -5T155 14T118 53T104 116Q104 170 138 262T173 379Q173 380 173 381Q173 390 173 393T169 400T158 404H154Q131 404 112 385T82 344T65 302T57 280Q55 278 41 278H27Q21 284 21 287Q21 293 29 315T52 366T96 418T161 441Q204 441 227 416T250 358Q250 340 217 250T184 111Q184 65 205 46T258 26Q301 26 334 87L339 96V119Q339 122 339 128T340 136T341 143T342 152T345 165T348 182T354 206T362 238T373 281Q402 395 406 404Q419 431 449 431Q468 431 475 421T483 402Q483 389 454 274T422 142Q420 131 420 107V100Q420 85 423 71T442 42T487 26Q558 26 600 148Q609 171 620 213T632 273Q632 306 619 325T593 357T580 385Z"></path>
<path stroke-width="1" id="E1-MJMAIN-31" d="M213 578L200 573Q186 568 160 563T102 556H83V602H102Q149 604 189 617T245 641T273 663Q275 666 285 666Q294 666 302 660V361L303 61Q310 54 315 52T339 48T401 46H427V0H416Q395 3 257 3Q121 3 100 0H88V46H114Q136 46 152 46T177 47T193 50T201 52T207 57T213 61V578Z"></path>
<path stroke-width="1" id="E1-MJMAIN-2C" d="M78 35T78 60T94 103T137 121Q165 121 187 96T210 8Q210 -27 201 -60T180 -117T154 -158T130 -185T117 -194Q113 -194 104 -185T95 -172Q95 -168 106 -156T131 -126T157 -76T173 -3V9L172 8Q170 7 167 6T161 3T152 1T140 0Q113 0 96 17Z"></path>
<path stroke-width="1" id="E1-MJMAIN-33" d="M127 463Q100 463 85 480T69 524Q69 579 117 622T233 665Q268 665 277 664Q351 652 390 611T430 522Q430 470 396 421T302 350L299 348Q299 347 308 345T337 336T375 315Q457 262 457 175Q457 96 395 37T238 -22Q158 -22 100 21T42 130Q42 158 60 175T105 193Q133 193 151 175T169 130Q169 119 166 110T159 94T148 82T136 74T126 70T118 67L114 66Q165 21 238 21Q293 21 321 74Q338 107 338 175V195Q338 290 274 322Q259 328 213 329L171 330L168 332Q166 335 166 348Q166 366 174 366Q202 366 232 371Q266 376 294 413T322 525V533Q322 590 287 612Q265 626 240 626Q208 626 181 615T143 592T132 580H135Q138 579 143 578T153 573T165 566T175 555T183 540T186 520Q186 498 172 481T127 463Z"></path>
<path stroke-width="1" id="E1-MJMAIN-2E" d="M78 60Q78 84 95 102T138 120Q162 120 180 104T199 61Q199 36 182 18T139 0T96 17T78 60Z"></path>
<path stroke-width="1" id="E1-MJMATHI-6D" d="M21 287Q22 293 24 303T36 341T56 388T88 425T132 442T175 435T205 417T221 395T229 376L231 369Q231 367 232 367L243 378Q303 442 384 442Q401 442 415 440T441 433T460 423T475 411T485 398T493 385T497 373T500 364T502 357L510 367Q573 442 659 442Q713 442 746 415T780 336Q780 285 742 178T704 50Q705 36 709 31T724 26Q752 26 776 56T815 138Q818 149 821 151T837 153Q857 153 857 145Q857 144 853 130Q845 101 831 73T785 17T716 -10Q669 -10 648 17T627 73Q627 92 663 193T700 345Q700 404 656 404H651Q565 404 506 303L499 291L466 157Q433 26 428 16Q415 -11 385 -11Q372 -11 364 -4T353 8T350 18Q350 29 384 161L420 307Q423 322 423 345Q423 404 379 404H374Q288 404 229 303L222 291L189 157Q156 26 151 16Q138 -11 108 -11Q95 -11 87 -5T76 7T74 17Q74 30 112 181Q151 335 151 342Q154 357 154 369Q154 405 129 405Q107 405 92 377T69 316T57 280Q55 278 41 278H27Q21 284 21 287Z"></path>
<path stroke-width="1" id="E1-MJMAIN-7C" d="M139 -249H137Q125 -249 119 -235V251L120 737Q130 750 139 750Q152 750 159 735V-235Q151 -249 141 -249H139Z"></path>
<path stroke-width="1" id="E1-MJMAIN-2212" d="M84 237T84 250T98 270H679Q694 262 694 250T679 230H98Q84 237 84 250Z"></path>
<path stroke-width="1" id="E1-MJSZ2-220F" d="M220 812Q220 813 218 819T214 829T208 840T199 853T185 866T166 878T140 887T107 893T66 896H56V950H1221V896H1211Q1080 896 1058 812V-311Q1076 -396 1211 -396H1221V-450H725V-396H735Q864 -396 888 -314Q889 -312 889 -311V896H388V292L389 -311Q405 -396 542 -396H552V-450H56V-396H66Q195 -396 219 -314Q220 -312 220 -311V812Z"></path>
<path stroke-width="1" id="E1-MJMATHI-69" d="M184 600Q184 624 203 642T247 661Q265 661 277 649T290 619Q290 596 270 577T226 557Q211 557 198 567T184 600ZM21 287Q21 295 30 318T54 369T98 420T158 442Q197 442 223 419T250 357Q250 340 236 301T196 196T154 83Q149 61 149 51Q149 26 166 26Q175 26 185 29T208 43T235 78T260 137Q263 149 265 151T282 153Q302 153 302 143Q302 135 293 112T268 61T223 11T161 -11Q129 -11 102 10T74 74Q74 91 79 106T122 220Q160 321 166 341T173 380Q173 404 156 404H154Q124 404 99 371T61 287Q60 286 59 284T58 281T56 279T53 278T49 278T41 278H27Q21 284 21 287Z"></path>
</defs>
<g stroke="currentColor" fill="currentColor" stroke-width="0" transform="matrix(1 0 0 -1 0 0)">
<g transform="translate(38293,0)">
<g id="mjx-eqn-2" transform="translate(0,1572)">
 <use xlink:href="#E1-MJMAIN-28"></use>
 <use xlink:href="#E1-MJMAIN-32" x="389" y="0"></use>
 <use xlink:href="#E1-MJMAIN-29" x="890" y="0"></use>
</g>
</g>
<g transform="translate(167,0)">
<g transform="translate(-11,0)">
<g transform="translate(0,1572)">
 <use xlink:href="#E1-MJMATHI-70" x="0" y="0"></use>
 <use xlink:href="#E1-MJMAIN-28" x="503" y="0"></use>
 <use xlink:href="#E1-MJMATHI-53" x="893" y="0"></use>
 <use xlink:href="#E1-MJMAIN-29" x="1538" y="0"></use>
 <use xlink:href="#E1-MJMAIN-3D" x="2205" y="0"></use>
 <use xlink:href="#E1-MJMATHI-70" x="3262" y="0"></use>
 <use xlink:href="#E1-MJMAIN-28" x="3765" y="0"></use>
<g transform="translate(4155,0)">
 <use xlink:href="#E1-MJMATHI-77" x="0" y="0"></use>
 <use transform="scale(0.707)" xlink:href="#E1-MJMAIN-31" x="1013" y="-213"></use>
</g>
 <use xlink:href="#E1-MJMAIN-2C" x="5325" y="0"></use>
<g transform="translate(5770,0)">
 <use xlink:href="#E1-MJMATHI-77" x="0" y="0"></use>
 <use transform="scale(0.707)" xlink:href="#E1-MJMAIN-32" x="1013" y="-213"></use>
</g>
 <use xlink:href="#E1-MJMAIN-2C" x="6941" y="0"></use>
<g transform="translate(7386,0)">
 <use xlink:href="#E1-MJMATHI-77" x="0" y="0"></use>
 <use transform="scale(0.707)" xlink:href="#E1-MJMAIN-33" x="1013" y="-213"></use>
</g>
 <use xlink:href="#E1-MJMAIN-2C" x="8556" y="0"></use>
 <use xlink:href="#E1-MJMAIN-2E" x="9001" y="0"></use>
 <use xlink:href="#E1-MJMAIN-2E" x="9446" y="0"></use>
 <use xlink:href="#E1-MJMAIN-2E" x="9892" y="0"></use>
 <use xlink:href="#E1-MJMAIN-2C" x="10337" y="0"></use>
<g transform="translate(10782,0)">
 <use xlink:href="#E1-MJMATHI-77" x="0" y="0"></use>
 <use transform="scale(0.707)" xlink:href="#E1-MJMATHI-6D" x="1013" y="-213"></use>
</g>
 <use xlink:href="#E1-MJMAIN-29" x="12220" y="0"></use>
 <use xlink:href="#E1-MJMAIN-3D" x="12887" y="0"></use>
 <use xlink:href="#E1-MJMATHI-70" x="13943" y="0"></use>
 <use xlink:href="#E1-MJMAIN-28" x="14447" y="0"></use>
<g transform="translate(14836,0)">
 <use xlink:href="#E1-MJMATHI-77" x="0" y="0"></use>
 <use transform="scale(0.707)" xlink:href="#E1-MJMAIN-31" x="1013" y="-213"></use>
</g>
 <use xlink:href="#E1-MJMAIN-29" x="16007" y="0"></use>
 <use xlink:href="#E1-MJMATHI-70" x="16396" y="0"></use>
 <use xlink:href="#E1-MJMAIN-28" x="16900" y="0"></use>
<g transform="translate(17289,0)">
 <use xlink:href="#E1-MJMATHI-77" x="0" y="0"></use>
 <use transform="scale(0.707)" xlink:href="#E1-MJMAIN-32" x="1013" y="-213"></use>
</g>
 <use xlink:href="#E1-MJMAIN-7C" x="18460" y="0"></use>
<g transform="translate(18738,0)">
 <use xlink:href="#E1-MJMATHI-77" x="0" y="0"></use>
 <use transform="scale(0.707)" xlink:href="#E1-MJMAIN-31" x="1013" y="-213"></use>
</g>
 <use xlink:href="#E1-MJMAIN-29" x="19908" y="0"></use>
 <use xlink:href="#E1-MJMATHI-70" x="20298" y="0"></use>
 <use xlink:href="#E1-MJMAIN-28" x="20801" y="0"></use>
<g transform="translate(21191,0)">
 <use xlink:href="#E1-MJMATHI-77" x="0" y="0"></use>
 <use transform="scale(0.707)" xlink:href="#E1-MJMAIN-33" x="1013" y="-213"></use>
</g>
 <use xlink:href="#E1-MJMAIN-7C" x="22361" y="0"></use>
<g transform="translate(22640,0)">
 <use xlink:href="#E1-MJMATHI-77" x="0" y="0"></use>
 <use transform="scale(0.707)" xlink:href="#E1-MJMAIN-31" x="1013" y="-213"></use>
</g>
 <use xlink:href="#E1-MJMAIN-2C" x="23810" y="0"></use>
<g transform="translate(24255,0)">
 <use xlink:href="#E1-MJMATHI-77" x="0" y="0"></use>
 <use transform="scale(0.707)" xlink:href="#E1-MJMAIN-32" x="1013" y="-213"></use>
</g>
 <use xlink:href="#E1-MJMAIN-29" x="25426" y="0"></use>
 <use xlink:href="#E1-MJMAIN-2E" x="25815" y="0"></use>
 <use xlink:href="#E1-MJMAIN-2E" x="26260" y="0"></use>
 <use xlink:href="#E1-MJMAIN-2E" x="26706" y="0"></use>
 <use xlink:href="#E1-MJMATHI-70" x="27151" y="0"></use>
 <use xlink:href="#E1-MJMAIN-28" x="27654" y="0"></use>
<g transform="translate(28044,0)">
 <use xlink:href="#E1-MJMATHI-77" x="0" y="0"></use>
 <use transform="scale(0.707)" xlink:href="#E1-MJMATHI-6D" x="1013" y="-213"></use>
</g>
 <use xlink:href="#E1-MJMAIN-7C" x="29481" y="0"></use>
<g transform="translate(29760,0)">
 <use xlink:href="#E1-MJMATHI-77" x="0" y="0"></use>
 <use transform="scale(0.707)" xlink:href="#E1-MJMAIN-31" x="1013" y="-213"></use>
</g>
 <use xlink:href="#E1-MJMAIN-2C" x="30930" y="0"></use>
<g transform="translate(31376,0)">
 <use xlink:href="#E1-MJMATHI-77" x="0" y="0"></use>
 <use transform="scale(0.707)" xlink:href="#E1-MJMAIN-32" x="1013" y="-213"></use>
</g>
 <use xlink:href="#E1-MJMAIN-2C" x="32546" y="0"></use>
 <use xlink:href="#E1-MJMAIN-2E" x="32991" y="0"></use>
 <use xlink:href="#E1-MJMAIN-2E" x="33436" y="0"></use>
 <use xlink:href="#E1-MJMAIN-2E" x="33881" y="0"></use>
 <use xlink:href="#E1-MJMAIN-2C" x="34327" y="0"></use>
<g transform="translate(34772,0)">
 <use xlink:href="#E1-MJMATHI-77" x="0" y="0"></use>
<g transform="translate(716,-150)">
 <use transform="scale(0.707)" xlink:href="#E1-MJMATHI-6D" x="0" y="0"></use>
 <use transform="scale(0.707)" xlink:href="#E1-MJMAIN-2212" x="878" y="0"></use>
 <use transform="scale(0.707)" xlink:href="#E1-MJMAIN-31" x="1657" y="0"></use>
</g>
</g>
 <use xlink:href="#E1-MJMAIN-29" x="37114" y="0"></use>
<g transform="translate(12701,-2247)">
 <use xlink:href="#E1-MJMAIN-3D" x="0" y="0"></use>
<g transform="translate(1056,0)">
 <use xlink:href="#E1-MJSZ2-220F" x="0" y="0"></use>
<g transform="translate(64,-1090)">
 <use transform="scale(0.707)" xlink:href="#E1-MJMATHI-69" x="0" y="0"></use>
 <use transform="scale(0.707)" xlink:href="#E1-MJMAIN-3D" x="345" y="0"></use>
 <use transform="scale(0.707)" xlink:href="#E1-MJMAIN-31" x="1124" y="0"></use>
</g>
 <use transform="scale(0.707)" xlink:href="#E1-MJMATHI-6D" x="464" y="1627"></use>
</g>
 <use xlink:href="#E1-MJMATHI-70" x="2501" y="0"></use>
 <use xlink:href="#E1-MJMAIN-28" x="3004" y="0"></use>
<g transform="translate(3394,0)">
 <use xlink:href="#E1-MJMATHI-77" x="0" y="0"></use>
 <use transform="scale(0.707)" xlink:href="#E1-MJMATHI-69" x="1013" y="-213"></use>
</g>
 <use xlink:href="#E1-MJMAIN-7C" x="4455" y="0"></use>
<g transform="translate(4733,0)">
 <use xlink:href="#E1-MJMATHI-77" x="0" y="0"></use>
 <use transform="scale(0.707)" xlink:href="#E1-MJMAIN-31" x="1013" y="-213"></use>
</g>
 <use xlink:href="#E1-MJMAIN-2C" x="5904" y="0"></use>
<g transform="translate(6349,0)">
 <use xlink:href="#E1-MJMATHI-77" x="0" y="0"></use>
 <use transform="scale(0.707)" xlink:href="#E1-MJMAIN-32" x="1013" y="-213"></use>
</g>
 <use xlink:href="#E1-MJMAIN-2C" x="7519" y="0"></use>
 <use xlink:href="#E1-MJMAIN-2E" x="7964" y="0"></use>
 <use xlink:href="#E1-MJMAIN-2E" x="8410" y="0"></use>
 <use xlink:href="#E1-MJMAIN-2E" x="8855" y="0"></use>
 <use xlink:href="#E1-MJMAIN-2C" x="9300" y="0"></use>
<g transform="translate(9745,0)">
 <use xlink:href="#E1-MJMATHI-77" x="0" y="0"></use>
<g transform="translate(716,-150)">
 <use transform="scale(0.707)" xlink:href="#E1-MJMATHI-69" x="0" y="0"></use>
 <use transform="scale(0.707)" xlink:href="#E1-MJMAIN-2212" x="345" y="0"></use>
 <use transform="scale(0.707)" xlink:href="#E1-MJMAIN-31" x="1124" y="0"></use>
</g>
</g>
 <use xlink:href="#E1-MJMAIN-29" x="11710" y="0"></use>
</g>
</g>
</g>
</g>
</g>
</svg>